<svg style="object-fit:cover" id="my-svg" version="1" baseProfile="full" width="100%" height="100%" viewBox="0 0 1920 880" xmlns="http://www.w3.org/2000/svg"><rect width="1920" height="880" fill="#ffffff"/><defs><linearGradient id="linear-gradient" x1="1" x2="0" y1="0.5" y2="0.5"><stop offset="0%" stop-color="#c81d1170"/><stop offset="100%" stop-color="#1c39bb70"/></linearGradient></defs><path transform="scale(1, -1)" style="transform-origin:center" d="M 0,880 V 0,352 C 54.56259204712816,384.3681885125184 109.12518409425633,416.7363770250368 203,388 C 296.8748159057437,359.2636229749632 430.061855670103,269.4226804123711 523,284 C 615.938144329897,298.5773195876289 668.6273932253315,417.57290132547865 739,427 C 809.3726067746685,436.42709867452135 897.4285714285713,336.2857142857143 974,346 C 1050.5714285714287,355.7142857142857 1115.6583210603828,475.2842415316642 1199,471 C 1282.3416789396172,466.7157584683358 1383.938144329897,338.5773195876289 1472,313 C 1560.061855670103,287.4226804123711 1634.5891016200294,364.40648011782037 1707,388 C 1779.4108983799706,411.59351988217963 1849.7054491899853,381.7967599410898 1920,352 C 1920,352 1920,880 1920,880 Z" stroke="none" stroke-width="0" fill="url(#linear-gradient)" class="transition-all duration-300 ease-in-out delay-150"/><defs><linearGradient id="linear-gradient" x1="1" x2="0" y1="0.5" y2="0.5"><stop offset="0%" stop-color="#c81d1180"/><stop offset="100%" stop-color="#1c39bb80"/></linearGradient></defs><path transform="scale(1, -1)" d="M 0,880 V 0,528 C 63.10493372606774,576.479381443299 126.20986745213548,624.958762886598 207,620 C 287.7901325478645,615.041237113402 386.26546391752584,556.6443298969072 470,509 C 553.7345360824742,461.35567010309285 622.7282768777615,424.46391752577324 705,408 C 787.2717231222385,391.53608247422676 882.8214285714287,395.5 961,440 C 1039.1785714285713,484.5 1099.9860088365242,569.5360824742268 1176,592 C 1252.0139911634758,614.4639175257732 1343.2345360824743,574.3556701030927 1425,524 C 1506.7654639175257,473.6443298969072 1579.0758468335787,413.0412371134021 1660,412 C 1740.9241531664213,410.9587628865979 1830.4620765832105,469.47938144329896 1920,528 C 1920,528 1920,880 1920,880 Z" stroke="none" stroke-width="0" fill="url(#linear-gradient)" class="transition-all duration-300 ease-in-out delay-150" style="transform-origin: center center;"/><defs><linearGradient id="linear-gradient" x1="1" x2="0" y1="0.5" y2="0.5"><stop offset="0%" stop-color="#c81d1190"/><stop offset="100%" stop-color="#1c39bb90"/></linearGradient></defs><path transform="scale(1, -1)" d="M 0,880 V 0,792 C 95.08468335787924,793.5938880706922 190.16936671575849,795.1877761413843 281,767 C 371.8306332842415,738.8122238586157 458.4072164948452,680.8427835051547 522,694 C 585.5927835051548,707.1572164948453 626.2017673048601,791.4410898379972 698,812 C 769.7982326951399,832.5589101620028 872.7857142857144,789.392857142857 966,742 C 1059.2142857142856,694.607142857143 1142.6553755522827,642.9874815905744 1209,685 C 1275.3446244477173,727.0125184094256 1324.5927835051546,862.6572164948453 1406,874 C 1487.4072164948454,885.3427835051547 1600.9734904270986,772.3836524300443 1692,738 C 1783.0265095729014,703.6163475699557 1851.5132547864507,747.8081737849778 1920,792 C 1920,792 1920,880 1920,880 Z" stroke="none" stroke-width="0" fill="url(#linear-gradient)" class="transition-all duration-300 ease-in-out delay-150" style="transform-origin: center center;"/><defs><linearGradient id="linear-gradient" x1="1" x2="0" y1="0.5" y2="0.5"><stop offset="0%" stop-color="#c81d11ff"/><stop offset="100%" stop-color="#1c39bbff"/></linearGradient></defs><path transform="scale(1, -1)" d="M 0,880 V 0,1188 C 61.71962444771722,1162.0075478645067 123.43924889543445,1136.0150957290132 213,1149 C 302.56075110456555,1161.9849042709868 419.96262886597947,1213.9471649484535 495,1211 C 570.0373711340205,1208.0528350515465 602.710235640648,1150.1962444771723 676,1161 C 749.289764359352,1171.8037555228277 863.1964285714287,1251.2678571428573 956,1220 C 1048.8035714285713,1188.7321428571427 1120.5040500736377,1046.732326951399 1198,1064 C 1275.4959499263623,1081.267673048601 1358.7873711340205,1257.8028350515465 1435,1286 C 1511.2126288659795,1314.1971649484535 1580.34646539028,1194.0563328424153 1660,1153 C 1739.65353460972,1111.9436671575847 1829.82676730486,1149.9718335787925 1920,1188 C 1920,1188 1920,880 1920,880 Z" stroke="none" stroke-width="0" fill="url(#linear-gradient)" class="transition-all duration-300 ease-in-out delay-150" style="transform-origin: center center;"/></svg>