<?xml version="1.0" encoding="utf-8"?><svg xmlns="http://www.w3.org/2000/svg" xmlns:xlink="http://www.w3.org/1999/xlink" width="3000" height="932" preserveAspectRatio="xMidYMid" viewBox="0 0 3000 932" style="z-index:1;margin-right:-2px;display:block;background-repeat-y:initial;background-repeat-x:initial;animation-play-state:paused" ><g transform="translate(1500,466) scale(1,1) translate(-1500,-466)" style="transform:matrix(1, 0, 0, 1, 0, 0);animation-play-state:paused" ><linearGradient id="lg-0.49613912029653684" x1="0" x2="1" y1="0" y2="0" style="animation-play-state:paused" ><stop stop-color="#2a9fde" offset="0" style="animation-play-state:paused" ></stop>

  
<stop stop-color="#7ff658" offset="1" style="animation-play-state:paused" ></stop></linearGradient>
<path d="M 0 0 L 0 851.609 Q 375 799.431 750 780.578 T 1500 508.669 T 2250 424.035 T 3000 297.808 L 3000 0 Z" fill="url(#lg-0.49613912029653684)" opacity="0.4" style="opacity:0.4;animation-play-state:paused" ></path>
<path d="M 0 0 L 0 851.07 Q 375 787.653 750 749.514 T 1500 537.284 T 2250 466.565 T 3000 292.845 L 3000 0 Z" fill="url(#lg-0.49613912029653684)" opacity="0.4" style="opacity:0.4;animation-play-state:paused" ></path>
<path d="M 0 0 L 0 904.056 Q 375 765.858 750 738.518 T 1500 516.132 T 2250 478.048 T 3000 292.857 L 3000 0 Z" fill="url(#lg-0.49613912029653684)" opacity="0.4" style="opacity:0.4;animation-play-state:paused" ></path>
<path d="M 0 0 L 0 903.938 Q 375 741.366 750 718.905 T 1500 512.31 T 2250 435.257 T 3000 283.917 L 3000 0 Z" fill="url(#lg-0.49613912029653684)" opacity="0.4" style="opacity:0.4;animation-play-state:paused" ></path>
<path d="M 0 0 L 0 847.237 Q 375 767.85 750 724.901 T 1500 581.938 T 2250 466.632 T 3000 287.164 L 3000 0 Z" fill="url(#lg-0.49613912029653684)" opacity="0.4" style="opacity:0.4;animation-play-state:paused" ></path></g></svg>