<?xml version="1.0" encoding="utf-8"?><svg xmlns="http://www.w3.org/2000/svg" xmlns:xlink="http://www.w3.org/1999/xlink" width="934" height="932" preserveAspectRatio="xMidYMid" viewBox="0 0 934 932" style="z-index:1;margin-right:-2px;display:block;background-repeat-y:initial;background-repeat-x:initial;animation-play-state:paused" ><g transform="translate(467,466) scale(1,1) translate(-467,-466)" style="transform:matrix(1, 0, 0, 1, 0, 0);animation-play-state:paused" ><linearGradient id="lg-0.665047747947511" x1="0" x2="1" y1="0" y2="0" style="animation-play-state:paused" ><stop stop-color="#2a9fde" offset="0" style="animation-play-state:paused" ></stop>

  
<stop stop-color="#7ff658" offset="1" style="animation-play-state:paused" ></stop></linearGradient>
<path d="M 0 0 L 0 856.586 Q 116.75 762.683 233.5 724.775 T 467 487.621 T 700.5 452.617 T 934 283.736 L 934 0 Z" fill="url(#lg-0.665047747947511)" opacity="0.4" style="opacity:0.4;animation-play-state:paused" ></path>
<path d="M 0 0 L 0 837.322 Q 116.75 738.43 233.5 705.561 T 467 549.718 T 700.5 440.309 T 934 298.411 L 934 0 Z" fill="url(#lg-0.665047747947511)" opacity="0.4" style="opacity:0.4;animation-play-state:paused" ></path>
<path d="M 0 0 L 0 835.944 Q 116.75 696.616 233.5 678.088 T 467 541.878 T 700.5 411.815 T 934 292.111 L 934 0 Z" fill="url(#lg-0.665047747947511)" opacity="0.4" style="opacity:0.4;animation-play-state:paused" ></path>
<path d="M 0 0 L 0 819.425 Q 116.75 685.297 233.5 659.151 T 467 561.13 T 700.5 444.987 T 934 261.086 L 934 0 Z" fill="url(#lg-0.665047747947511)" opacity="0.4" style="opacity:0.4;animation-play-state:paused" ></path>
<path d="M 0 0 L 0 917.576 Q 116.75 744.023 233.5 703.49 T 467 622.096 T 700.5 450.386 T 934 303.866 L 934 0 Z" fill="url(#lg-0.665047747947511)" opacity="0.4" style="opacity:0.4;animation-play-state:paused" ></path></g></svg>